<mxfile host="app.diagrams.net" modified="2023-08-10T13:53:24.781Z" agent="Mozilla/5.0 (Macintosh; Intel Mac OS X 10_15_7) AppleWebKit/537.36 (KHTML, like Gecko) Chrome/113.0.0.0 Safari/537.36" etag="p0FiSbuWunEBIiL-dprq" version="21.6.7" type="github">
  <diagram name="Page-1" id="dDeGqRXp0xGCJ_mann2E">
    <mxGraphModel dx="923" dy="1694" grid="1" gridSize="10" guides="1" tooltips="1" connect="1" arrows="1" fold="1" page="1" pageScale="1" pageWidth="850" pageHeight="1100" math="0" shadow="0">
      <root>
        <mxCell id="0" />
        <mxCell id="1" parent="0" />
        <mxCell id="2CZnXlwhO2XaA9rqXaDM-6" value="" style="edgeStyle=orthogonalEdgeStyle;rounded=0;orthogonalLoop=1;jettySize=auto;html=1;" edge="1" parent="1" source="2CZnXlwhO2XaA9rqXaDM-1" target="2CZnXlwhO2XaA9rqXaDM-5">
          <mxGeometry relative="1" as="geometry" />
        </mxCell>
        <mxCell id="2CZnXlwhO2XaA9rqXaDM-1" value="Web&lt;br&gt;User" style="rounded=0;whiteSpace=wrap;html=1;" vertex="1" parent="1">
          <mxGeometry x="20" y="-107" width="120" height="60" as="geometry" />
        </mxCell>
        <mxCell id="2CZnXlwhO2XaA9rqXaDM-5" value="Load&lt;br&gt;Balancer（Nginx）" style="whiteSpace=wrap;html=1;rounded=0;" vertex="1" parent="1">
          <mxGeometry x="220" y="-177" width="50" height="200" as="geometry" />
        </mxCell>
        <mxCell id="2CZnXlwhO2XaA9rqXaDM-9" value="" style="endArrow=classic;html=1;rounded=0;exitX=1;exitY=0.5;exitDx=0;exitDy=0;" edge="1" parent="1" source="2CZnXlwhO2XaA9rqXaDM-5">
          <mxGeometry width="50" height="50" relative="1" as="geometry">
            <mxPoint x="270" y="-67" as="sourcePoint" />
            <mxPoint x="350" y="-77" as="targetPoint" />
          </mxGeometry>
        </mxCell>
        <mxCell id="2CZnXlwhO2XaA9rqXaDM-8" value="" style="rounded=0;whiteSpace=wrap;html=1;" vertex="1" parent="1">
          <mxGeometry x="343" y="95" width="120" height="60" as="geometry" />
        </mxCell>
        <mxCell id="2CZnXlwhO2XaA9rqXaDM-12" value="User" style="shape=cylinder3;whiteSpace=wrap;html=1;boundedLbl=1;backgroundOutline=1;size=15;" vertex="1" parent="1">
          <mxGeometry x="40" y="300" width="130" height="90" as="geometry" />
        </mxCell>
        <mxCell id="2CZnXlwhO2XaA9rqXaDM-13" value="" style="rounded=0;whiteSpace=wrap;html=1;" vertex="1" parent="1">
          <mxGeometry x="353" y="106" width="120" height="60" as="geometry" />
        </mxCell>
        <mxCell id="2CZnXlwhO2XaA9rqXaDM-14" value="Web&lt;br&gt;Server" style="rounded=0;whiteSpace=wrap;html=1;" vertex="1" parent="1">
          <mxGeometry x="365" y="120" width="120" height="60" as="geometry" />
        </mxCell>
        <mxCell id="2CZnXlwhO2XaA9rqXaDM-15" value="Discuss" style="shape=cylinder3;whiteSpace=wrap;html=1;boundedLbl=1;backgroundOutline=1;size=15;" vertex="1" parent="1">
          <mxGeometry x="200" y="300" width="150" height="90" as="geometry" />
        </mxCell>
        <mxCell id="2CZnXlwhO2XaA9rqXaDM-16" value="Content&lt;br&gt;Metadata&lt;br&gt;(NoSQL)" style="shape=cylinder3;whiteSpace=wrap;html=1;boundedLbl=1;backgroundOutline=1;size=15;" vertex="1" parent="1">
          <mxGeometry x="368" y="300" width="152" height="90" as="geometry" />
        </mxCell>
        <mxCell id="2CZnXlwhO2XaA9rqXaDM-18" value="Web&lt;br&gt;Server" style="rounded=0;whiteSpace=wrap;html=1;" vertex="1" parent="1">
          <mxGeometry x="377" y="132" width="120" height="60" as="geometry" />
        </mxCell>
        <mxCell id="2CZnXlwhO2XaA9rqXaDM-19" value="id&lt;br&gt;username&lt;br&gt;password&lt;br&gt;email&lt;br&gt;salt&lt;br&gt;type&lt;br&gt;status&lt;br&gt;headerUrl&lt;br&gt;createTime" style="rounded=0;whiteSpace=wrap;html=1;" vertex="1" parent="1">
          <mxGeometry x="40" y="410" width="130" height="200" as="geometry" />
        </mxCell>
        <mxCell id="2CZnXlwhO2XaA9rqXaDM-20" value="id&lt;br&gt;userId&lt;br&gt;title&lt;br&gt;content&lt;br&gt;type&lt;br&gt;status&lt;br&gt;createTime&lt;br&gt;commentCount&lt;br&gt;score" style="rounded=0;whiteSpace=wrap;html=1;" vertex="1" parent="1">
          <mxGeometry x="200" y="410" width="150" height="200" as="geometry" />
        </mxCell>
        <mxCell id="2CZnXlwhO2XaA9rqXaDM-21" value="" style="rounded=0;whiteSpace=wrap;html=1;" vertex="1" parent="1">
          <mxGeometry x="368" y="410" width="152" height="200" as="geometry" />
        </mxCell>
        <mxCell id="2CZnXlwhO2XaA9rqXaDM-22" value="Discuss" style="shape=cylinder3;whiteSpace=wrap;html=1;boundedLbl=1;backgroundOutline=1;size=15;" vertex="1" parent="1">
          <mxGeometry x="550" y="300" width="152" height="90" as="geometry" />
        </mxCell>
        <mxCell id="2CZnXlwhO2XaA9rqXaDM-23" value="id&lt;br&gt;userID&lt;br&gt;entityType&lt;br&gt;entityId&lt;br&gt;targetId&lt;br&gt;content&lt;br&gt;status&lt;br&gt;createTime" style="rounded=0;whiteSpace=wrap;html=1;" vertex="1" parent="1">
          <mxGeometry x="550" y="410" width="152" height="200" as="geometry" />
        </mxCell>
        <mxCell id="2CZnXlwhO2XaA9rqXaDM-26" value="1." style="edgeStyle=orthogonalEdgeStyle;rounded=0;orthogonalLoop=1;jettySize=auto;html=1;" edge="1" parent="1">
          <mxGeometry relative="1" as="geometry">
            <mxPoint x="80" y="156" as="sourcePoint" />
            <mxPoint x="80" y="216" as="targetPoint" />
          </mxGeometry>
        </mxCell>
        <mxCell id="2CZnXlwhO2XaA9rqXaDM-27" value="1.logup" style="edgeLabel;html=1;align=center;verticalAlign=middle;resizable=0;points=[];" vertex="1" connectable="0" parent="2CZnXlwhO2XaA9rqXaDM-26">
          <mxGeometry x="-0.15" y="3" relative="1" as="geometry">
            <mxPoint as="offset" />
          </mxGeometry>
        </mxCell>
        <mxCell id="2CZnXlwhO2XaA9rqXaDM-24" value="New&lt;br&gt;User" style="rounded=0;whiteSpace=wrap;html=1;" vertex="1" parent="1">
          <mxGeometry x="60" y="106" width="120" height="50" as="geometry" />
        </mxCell>
        <mxCell id="2CZnXlwhO2XaA9rqXaDM-28" value="" style="edgeStyle=orthogonalEdgeStyle;rounded=0;orthogonalLoop=1;jettySize=auto;html=1;" edge="1" parent="1">
          <mxGeometry relative="1" as="geometry">
            <mxPoint x="123" y="217" as="sourcePoint" />
            <mxPoint x="123" y="157" as="targetPoint" />
          </mxGeometry>
        </mxCell>
        <mxCell id="2CZnXlwhO2XaA9rqXaDM-29" value="2.send&lt;br&gt;email" style="edgeLabel;html=1;align=center;verticalAlign=middle;resizable=0;points=[];" vertex="1" connectable="0" parent="2CZnXlwhO2XaA9rqXaDM-28">
          <mxGeometry x="-0.15" y="3" relative="1" as="geometry">
            <mxPoint as="offset" />
          </mxGeometry>
        </mxCell>
        <mxCell id="2CZnXlwhO2XaA9rqXaDM-30" value="" style="edgeStyle=orthogonalEdgeStyle;rounded=0;orthogonalLoop=1;jettySize=auto;html=1;" edge="1" parent="1">
          <mxGeometry relative="1" as="geometry">
            <mxPoint x="164" y="156" as="sourcePoint" />
            <mxPoint x="164" y="216" as="targetPoint" />
            <Array as="points">
              <mxPoint x="164" y="190" />
              <mxPoint x="164" y="190" />
            </Array>
          </mxGeometry>
        </mxCell>
        <mxCell id="2CZnXlwhO2XaA9rqXaDM-31" value="3.login" style="edgeLabel;html=1;align=center;verticalAlign=middle;resizable=0;points=[];" vertex="1" connectable="0" parent="2CZnXlwhO2XaA9rqXaDM-30">
          <mxGeometry x="-0.15" y="3" relative="1" as="geometry">
            <mxPoint as="offset" />
          </mxGeometry>
        </mxCell>
        <mxCell id="2CZnXlwhO2XaA9rqXaDM-32" value="Message" style="shape=cylinder3;whiteSpace=wrap;html=1;boundedLbl=1;backgroundOutline=1;size=15;" vertex="1" parent="1">
          <mxGeometry x="740" y="300" width="152" height="90" as="geometry" />
        </mxCell>
        <mxCell id="2CZnXlwhO2XaA9rqXaDM-33" value="id&lt;br&gt;fromId&lt;br&gt;toId&lt;br&gt;conversationId&lt;br&gt;content&lt;br&gt;status&lt;br&gt;createTime" style="rounded=0;whiteSpace=wrap;html=1;" vertex="1" parent="1">
          <mxGeometry x="740" y="410" width="152" height="200" as="geometry" />
        </mxCell>
        <mxCell id="2CZnXlwhO2XaA9rqXaDM-36" value="" style="edgeStyle=orthogonalEdgeStyle;rounded=0;orthogonalLoop=1;jettySize=auto;html=1;entryX=0.5;entryY=0;entryDx=0;entryDy=0;" edge="1" parent="1" source="2CZnXlwhO2XaA9rqXaDM-34" target="2CZnXlwhO2XaA9rqXaDM-37">
          <mxGeometry relative="1" as="geometry" />
        </mxCell>
        <mxCell id="2CZnXlwhO2XaA9rqXaDM-34" value="New&lt;br&gt;Disscuss" style="rounded=0;whiteSpace=wrap;html=1;" vertex="1" parent="1">
          <mxGeometry x="234" y="90" width="82" height="60" as="geometry" />
        </mxCell>
        <mxCell id="2CZnXlwhO2XaA9rqXaDM-39" value="" style="edgeStyle=orthogonalEdgeStyle;rounded=0;orthogonalLoop=1;jettySize=auto;html=1;" edge="1" parent="1" source="2CZnXlwhO2XaA9rqXaDM-37">
          <mxGeometry relative="1" as="geometry">
            <mxPoint x="275" y="297" as="targetPoint" />
          </mxGeometry>
        </mxCell>
        <mxCell id="2CZnXlwhO2XaA9rqXaDM-37" value="Sensitive&lt;br&gt;Filter" style="whiteSpace=wrap;html=1;sketch=0;rounded=0;" vertex="1" parent="1">
          <mxGeometry x="232" y="187" width="86" height="56" as="geometry" />
        </mxCell>
        <mxCell id="2CZnXlwhO2XaA9rqXaDM-40" value="" style="endArrow=classic;html=1;rounded=0;" edge="1" parent="1" target="2CZnXlwhO2XaA9rqXaDM-12">
          <mxGeometry width="50" height="50" relative="1" as="geometry">
            <mxPoint x="105" y="160" as="sourcePoint" />
            <mxPoint x="410" y="170" as="targetPoint" />
          </mxGeometry>
        </mxCell>
        <mxCell id="2CZnXlwhO2XaA9rqXaDM-41" value="Write&lt;br&gt;&amp;amp;&lt;br&gt;Check" style="edgeLabel;html=1;align=center;verticalAlign=middle;resizable=0;points=[];" vertex="1" connectable="0" parent="2CZnXlwhO2XaA9rqXaDM-40">
          <mxGeometry x="0.1556" y="2" relative="1" as="geometry">
            <mxPoint as="offset" />
          </mxGeometry>
        </mxCell>
        <mxCell id="2CZnXlwhO2XaA9rqXaDM-42" value="&lt;font style=&quot;font-size: 14px;&quot;&gt;Function&lt;/font&gt;&lt;br&gt;login, logup, quit,&lt;br&gt;status, setting, authorize&lt;br&gt;@Session Management" style="rounded=0;whiteSpace=wrap;html=1;" vertex="1" parent="1">
          <mxGeometry x="20" y="840" width="190" height="100" as="geometry" />
        </mxCell>
        <mxCell id="2CZnXlwhO2XaA9rqXaDM-43" value="&lt;font style=&quot;font-size: 14px;&quot;&gt;Core&lt;/font&gt;&lt;br&gt;home, post, comment,&lt;br&gt;message, exception, log&lt;br&gt;@Sensitive filter, @Transaction" style="rounded=0;whiteSpace=wrap;html=1;" vertex="1" parent="1">
          <mxGeometry x="240" y="840" width="210" height="100" as="geometry" />
        </mxCell>
        <mxCell id="2CZnXlwhO2XaA9rqXaDM-44" value="&lt;span style=&quot;font-size: 14px;&quot;&gt;Performance&lt;/span&gt;&lt;br&gt;like, follow&lt;br&gt;statistics, cache&lt;br&gt;@Data Structure" style="rounded=0;whiteSpace=wrap;html=1;" vertex="1" parent="1">
          <mxGeometry x="480" y="840" width="140" height="100" as="geometry" />
        </mxCell>
        <mxCell id="2CZnXlwhO2XaA9rqXaDM-45" value="&lt;span style=&quot;font-size: 14px;&quot;&gt;Notation&lt;/span&gt;&lt;br&gt;system notation&lt;br&gt;@Pattern" style="rounded=0;whiteSpace=wrap;html=1;" vertex="1" parent="1">
          <mxGeometry x="650" y="840" width="100" height="100" as="geometry" />
        </mxCell>
        <mxCell id="2CZnXlwhO2XaA9rqXaDM-46" value="&lt;span style=&quot;font-size: 14px;&quot;&gt;Search&lt;br&gt;&lt;/span&gt;full-text search&lt;br&gt;@Index" style="rounded=0;whiteSpace=wrap;html=1;" vertex="1" parent="1">
          <mxGeometry x="780" y="840" width="100" height="100" as="geometry" />
        </mxCell>
        <mxCell id="2CZnXlwhO2XaA9rqXaDM-48" value="&lt;span style=&quot;font-size: 14px;&quot;&gt;Other&lt;br&gt;&lt;/span&gt;ranking, uploading,&lt;br&gt;server cache&lt;br&gt;@ThreadPool, @Cache" style="rounded=0;whiteSpace=wrap;html=1;" vertex="1" parent="1">
          <mxGeometry x="910" y="840" width="150" height="100" as="geometry" />
        </mxCell>
        <mxCell id="2CZnXlwhO2XaA9rqXaDM-49" value="Spring Email" style="rounded=0;whiteSpace=wrap;html=1;" vertex="1" parent="1">
          <mxGeometry x="20" y="950" width="90" height="40" as="geometry" />
        </mxCell>
        <mxCell id="2CZnXlwhO2XaA9rqXaDM-50" value="Interceptor" style="rounded=0;whiteSpace=wrap;html=1;" vertex="1" parent="1">
          <mxGeometry x="120" y="950" width="90" height="40" as="geometry" />
        </mxCell>
        <mxCell id="2CZnXlwhO2XaA9rqXaDM-51" value="Advice" style="rounded=0;whiteSpace=wrap;html=1;" vertex="1" parent="1">
          <mxGeometry x="240" y="950" width="60" height="40" as="geometry" />
        </mxCell>
        <mxCell id="2CZnXlwhO2XaA9rqXaDM-52" value="Transaction" style="rounded=0;whiteSpace=wrap;html=1;" vertex="1" parent="1">
          <mxGeometry x="360" y="950" width="90" height="40" as="geometry" />
        </mxCell>
        <mxCell id="2CZnXlwhO2XaA9rqXaDM-53" value="AOP" style="rounded=0;whiteSpace=wrap;html=1;" vertex="1" parent="1">
          <mxGeometry x="310" y="950" width="40" height="40" as="geometry" />
        </mxCell>
        <mxCell id="2CZnXlwhO2XaA9rqXaDM-54" value="Redis" style="rounded=0;whiteSpace=wrap;html=1;" vertex="1" parent="1">
          <mxGeometry x="480" y="950" width="140" height="40" as="geometry" />
        </mxCell>
        <mxCell id="2CZnXlwhO2XaA9rqXaDM-55" value="Kafka" style="rounded=0;whiteSpace=wrap;html=1;" vertex="1" parent="1">
          <mxGeometry x="650" y="950" width="100" height="40" as="geometry" />
        </mxCell>
        <mxCell id="2CZnXlwhO2XaA9rqXaDM-56" value="Elasticsearch" style="rounded=0;whiteSpace=wrap;html=1;" vertex="1" parent="1">
          <mxGeometry x="780" y="950" width="100" height="40" as="geometry" />
        </mxCell>
        <mxCell id="2CZnXlwhO2XaA9rqXaDM-57" value="Quartz" style="rounded=0;whiteSpace=wrap;html=1;" vertex="1" parent="1">
          <mxGeometry x="910" y="950" width="70" height="40" as="geometry" />
        </mxCell>
        <mxCell id="2CZnXlwhO2XaA9rqXaDM-58" value="Caffeine" style="rounded=0;whiteSpace=wrap;html=1;" vertex="1" parent="1">
          <mxGeometry x="990" y="950" width="70" height="40" as="geometry" />
        </mxCell>
        <mxCell id="2CZnXlwhO2XaA9rqXaDM-59" value="Spring MVC" style="rounded=0;whiteSpace=wrap;html=1;" vertex="1" parent="1">
          <mxGeometry x="20" y="1010" width="330" height="50" as="geometry" />
        </mxCell>
        <mxCell id="2CZnXlwhO2XaA9rqXaDM-62" value="Spring Security" style="rounded=0;whiteSpace=wrap;html=1;" vertex="1" parent="1">
          <mxGeometry x="730" y="1010" width="330" height="50" as="geometry" />
        </mxCell>
        <mxCell id="2CZnXlwhO2XaA9rqXaDM-63" value="Spring MyBatis" style="rounded=0;whiteSpace=wrap;html=1;" vertex="1" parent="1">
          <mxGeometry x="377" y="1010" width="330" height="50" as="geometry" />
        </mxCell>
        <mxCell id="2CZnXlwhO2XaA9rqXaDM-65" value="Spring" style="rounded=0;whiteSpace=wrap;html=1;" vertex="1" parent="1">
          <mxGeometry x="20" y="1080" width="1040" height="60" as="geometry" />
        </mxCell>
        <mxCell id="2CZnXlwhO2XaA9rqXaDM-66" value="Spring Boot" style="rounded=0;whiteSpace=wrap;html=1;" vertex="1" parent="1">
          <mxGeometry x="22" y="1160" width="1040" height="60" as="geometry" />
        </mxCell>
        <mxCell id="2CZnXlwhO2XaA9rqXaDM-67" value="CDN" style="rounded=0;whiteSpace=wrap;html=1;" vertex="1" parent="1">
          <mxGeometry x="140" y="-320" width="120" height="60" as="geometry" />
        </mxCell>
        <mxCell id="2CZnXlwhO2XaA9rqXaDM-68" value="" style="endArrow=classic;html=1;rounded=0;entryX=0.5;entryY=1;entryDx=0;entryDy=0;" edge="1" parent="1" target="2CZnXlwhO2XaA9rqXaDM-67">
          <mxGeometry width="50" height="50" relative="1" as="geometry">
            <mxPoint x="80" y="-107" as="sourcePoint" />
            <mxPoint x="130" y="-157" as="targetPoint" />
          </mxGeometry>
        </mxCell>
      </root>
    </mxGraphModel>
  </diagram>
</mxfile>
